<svg xmlns="http://www.w3.org/2000/svg" viewBox="0 0 1600 1600" width="1600" height="1600">
<defs><radialGradient id="bloom0" cx="50%" cy="50%" r="50%">
      <stop offset="0%" stop-color="#6B3A8F" stop-opacity="0.3"/>
      <stop offset="100%" stop-color="#6B3A8F" stop-opacity="0"/>
    </radialGradient><radialGradient id="bloom1" cx="50%" cy="50%" r="50%">
      <stop offset="0%" stop-color="#B08AEB" stop-opacity="0.22"/>
      <stop offset="100%" stop-color="#B08AEB" stop-opacity="0"/>
    </radialGradient><radialGradient id="bloom2" cx="50%" cy="50%" r="50%">
      <stop offset="0%" stop-color="#6B3A8F" stop-opacity="0.26"/>
      <stop offset="100%" stop-color="#6B3A8F" stop-opacity="0"/>
    </radialGradient><radialGradient id="bloom3" cx="50%" cy="50%" r="50%">
      <stop offset="0%" stop-color="#B08AEB" stop-opacity="0.2"/>
      <stop offset="100%" stop-color="#B08AEB" stop-opacity="0"/>
    </radialGradient><radialGradient id="bloom4" cx="50%" cy="50%" r="50%">
      <stop offset="0%" stop-color="#3a2154" stop-opacity="0.28"/>
      <stop offset="100%" stop-color="#3a2154" stop-opacity="0"/>
    </radialGradient></defs>
<circle cx="260" cy="220" r="420" fill="url(#bloom0)"/><circle cx="1280" cy="380" r="460" fill="url(#bloom1)"/><circle cx="420" cy="1180" r="480" fill="url(#bloom2)"/><circle cx="1180" cy="1260" r="400" fill="url(#bloom3)"/><circle cx="820" cy="760" r="520" fill="url(#bloom4)"/><circle cx="518.1324237330598" cy="241.35867827920308" r="1.3811213676478244" fill="#c9a87c" opacity="0.3289745146670171"/><circle cx="150.6080671034921" cy="932.4608094453682" r="1.6916448757717228" fill="#f0c987" opacity="0.38587927233426467"/><circle cx="693.8330938598174" cy="111.7686777193903" r="0.708855616012638" fill="#c9a87c" opacity="0.46980767565700554"/><circle cx="198.08313783943294" cy="357.1823433712233" r="1.3529198668867073" fill="#c9a87c" opacity="0.6790835769828022"/><circle cx="936.8662762246188" cy="79.34290142363434" r="0.8652981881491781" fill="#f0c987" opacity="0.522665959174837"/><circle cx="463.374858130682" cy="230.80813337190006" r="0.741350685694042" fill="#f0c987" opacity="0.42339272964077374"/><circle cx="164.88913990974618" cy="913.9270262588676" r="0.8254452321445722" fill="#f0c987" opacity="0.3389722303978933"/><circle cx="902.9892690134186" cy="990.4153490776862" r="1.1956973941361904" fill="#b08aeb" opacity="0.5126880986320742"/><circle cx="744.9629853434784" cy="1477.5062138221783" r="1.0338988271334797" fill="#f0c987" opacity="0.3993706339430197"/><circle cx="1118.391093967314" cy="390.55441715544464" r="1.2893084523104053" fill="#b08aeb" opacity="0.5100786015245805"/><circle cx="1167.1124631027483" cy="460.7004238242984" r="1.7762098169910985" fill="#b08aeb" opacity="0.34722631130198484"/><circle cx="263.93936582971713" cy="547.2892898557726" r="1.7199242546167652" fill="#f0c987" opacity="0.4686793417906977"/><circle cx="1223.313385940501" cy="916.8415044438143" r="1.6505733741970658" fill="#b08aeb" opacity="0.42549900513923866"/><circle cx="950.9918033680295" cy="927.8323268519875" r="1.1474463975616958" fill="#b08aeb" opacity="0.6359871122050165"/><circle cx="758.5573398714312" cy="1062.643528759479" r="0.6728033131166636" fill="#c9a87c" opacity="0.5805968085217695"/><circle cx="1588.9535031466146" cy="1315.0796585755438" r="0.9415146385129791" fill="#b08aeb" opacity="0.45431657697868433"/><circle cx="36.100684888941714" cy="738.7124580796253" r="0.8016580546878534" fill="#f0c987" opacity="0.34683831779269275"/><circle cx="349.1324397114871" cy="459.89108239817875" r="1.486036055513753" fill="#b08aeb" opacity="0.45915907141849305"/><circle cx="128.9300819202218" cy="718.6998415189296" r="1.259327890972845" fill="#b08aeb" opacity="0.653353530576605"/><circle cx="1382.3751515176243" cy="445.47370322223543" r="1.0983558206540383" fill="#b08aeb" opacity="0.4435084661326499"/><circle cx="1532.369926342386" cy="241.47344926577432" r="0.8114612741884444" fill="#f0c987" opacity="0.39278274672781427"/><circle cx="19.300895750078162" cy="1329.749698509258" r="0.8188114487774367" fill="#f0c987" opacity="0.41277228893069506"/><circle cx="670.3144018005247" cy="590.8057166315606" r="1.2796094684476704" fill="#c9a87c" opacity="0.6812391702100381"/><circle cx="1520.3583194922535" cy="1047.946341946126" r="1.4877416973172983" fill="#c9a87c" opacity="0.4826574888811499"/><circle cx="627.8062510260298" cy="638.3661317124368" r="0.7242445124523891" fill="#f0c987" opacity="0.5537158262742836"/><circle cx="304.9752601068926" cy="1575.4681612105749" r="1.1287522419897007" fill="#c9a87c" opacity="0.34397132200018654"/><circle cx="84.12096622442711" cy="0.3732510421706081" r="0.7815179187353135" fill="#b08aeb" opacity="0.34058574720903856"/><circle cx="981.9796207606897" cy="112.50492184558354" r="0.8495432193345038" fill="#b08aeb" opacity="0.45049174472257636"/><circle cx="1528.748838274354" cy="963.6467023392132" r="1.1689817558781108" fill="#b08aeb" opacity="0.3461414064435271"/><circle cx="1588.9643547275423" cy="745.583134655894" r="1.1806015876995235" fill="#f0c987" opacity="0.3343538646224662"/><circle cx="1199.4782727078893" cy="1184.5619590849506" r="1.1743463322119894" fill="#c9a87c" opacity="0.5768227075381237"/><circle cx="36.95315367239704" cy="1521.5769165995234" r="1.2339088740505497" fill="#c9a87c" opacity="0.35864101555963623"/><circle cx="1462.6332524662314" cy="1213.0287352574996" r="0.9577076284155359" fill="#f0c987" opacity="0.5571668322781473"/><circle cx="1113.914857452483" cy="417.7843155669791" r="1.0400397501134147" fill="#f0c987" opacity="0.3668168138137345"/><circle cx="852.1478359886064" cy="1246.4878261410836" r="0.9955979940573149" fill="#f0c987" opacity="0.389216669241274"/><circle cx="1289.725735657068" cy="1309.3327093205971" r="1.4878476244508572" fill="#c9a87c" opacity="0.39069579601263393"/><circle cx="788.4509486623112" cy="1169.606387960674" r="1.7875243040436843" fill="#b08aeb" opacity="0.61604565465277"/><circle cx="414.6789812284105" cy="1108.0351067201973" r="1.7478180916096053" fill="#b08aeb" opacity="0.4788910711066894"/><circle cx="1528.0010101141331" cy="583.4174165789857" r="0.864554787595485" fill="#f0c987" opacity="0.39073833069229114"/><circle cx="540.3799677416487" cy="772.2452834137247" r="1.7822987964776904" fill="#f0c987" opacity="0.5441048587573633"/><circle cx="767.1574820184611" cy="1044.7648685456145" r="1.5595724938195923" fill="#f0c987" opacity="0.333911394580152"/><circle cx="1455.6434200827566" cy="1251.684614556944" r="1.5001685517965502" fill="#f0c987" opacity="0.49121309783760003"/><circle cx="694.2801211969307" cy="1017.3475543560647" r="0.704099829204293" fill="#b08aeb" opacity="0.6784661381592073"/><circle cx="741.0568642781593" cy="1189.3643372869133" r="0.7019030993413806" fill="#f0c987" opacity="0.3635424201786627"/><circle cx="44.07816113413201" cy="945.2996838671219" r="1.1584246588334617" fill="#c9a87c" opacity="0.562343275982661"/><circle cx="1322.4167656406194" cy="1568.4895095152488" r="1.388721951283224" fill="#c9a87c" opacity="0.44016300486300114"/><circle cx="877.2568956730825" cy="34.23467891505876" r="1.5592284140368418" fill="#f0c987" opacity="0.590548022537454"/><circle cx="842.5296753584888" cy="1493.7996880918827" r="1.1205713241089827" fill="#f0c987" opacity="0.6486971711957616"/><circle cx="44.78996100228798" cy="340.44766775329884" r="1.201394303803498" fill="#b08aeb" opacity="0.6054719137741242"/><circle cx="414.9836724323363" cy="670.4200844072698" r="0.75728841180418" fill="#b08aeb" opacity="0.6640068225262226"/><circle cx="1436.326401927006" cy="1059.9597285193058" r="1.5780564389016938" fill="#c9a87c" opacity="0.506704334678138"/><circle cx="209.2212144353981" cy="242.93821482070186" r="1.2126564146760541" fill="#f0c987" opacity="0.649122239470854"/><circle cx="973.687422322422" cy="1241.6623449226672" r="0.779762981882811" fill="#c9a87c" opacity="0.3566235884234098"/><circle cx="1160.3092327158047" cy="890.3609998435412" r="0.9911785812586369" fill="#c9a87c" opacity="0.5073394850812147"/><circle cx="771.9792221101816" cy="1242.3841608298947" r="1.6598733773257983" fill="#f0c987" opacity="0.3227290280118415"/><circle cx="443.06731274365046" cy="1235.6177580087813" r="1.2092567901507847" fill="#f0c987" opacity="0.5246917546625904"/><circle cx="709.1974297239021" cy="980.0446149511366" r="1.2066637570214662" fill="#b08aeb" opacity="0.5048645889741277"/><circle cx="723.7532676238554" cy="853.2567001266734" r="1.1736435816385018" fill="#c9a87c" opacity="0.6766004510154002"/><circle cx="1402.4567708489494" cy="1507.488941285721" r="0.9115107529412289" fill="#f0c987" opacity="0.5238055225990859"/><circle cx="1343.9996534291292" cy="219.41509743496238" r="0.7459463452610168" fill="#f0c987" opacity="0.4768472353100174"/><circle cx="1073.8487153129429" cy="685.3418835773558" r="0.8552277595055593" fill="#f0c987" opacity="0.4211120301006317"/><circle cx="1435.242292606027" cy="247.11459802990737" r="1.4593438593458354" fill="#f0c987" opacity="0.5641026060765484"/><circle cx="404.9725399355033" cy="219.6073647444818" r="1.1612829943262444" fill="#f0c987" opacity="0.5986728368774179"/><circle cx="637.2109995476351" cy="779.6172399854082" r="1.787845745693144" fill="#f0c987" opacity="0.632977867793179"/><circle cx="1130.1176837864136" cy="1590.5161799860603" r="1.0845717013399256" fill="#b08aeb" opacity="0.4685105895869275"/><circle cx="509.6409093403104" cy="1155.4413362258972" r="0.6233795136628718" fill="#b08aeb" opacity="0.5216200991233312"/><circle cx="1125.0422003040549" cy="614.9512926518664" r="1.220920627927128" fill="#f0c987" opacity="0.418181644416637"/><circle cx="180.55993300775572" cy="1469.6770404382116" r="0.8742646244617934" fill="#f0c987" opacity="0.6505568984293328"/><circle cx="424.9028357496316" cy="63.34110386250824" r="1.5347969160814707" fill="#f0c987" opacity="0.40817843900852363"/><circle cx="1311.6436293393872" cy="1359.3405236174322" r="1.4111683650521545" fill="#b08aeb" opacity="0.6784006245690852"/><circle cx="238.98871584652514" cy="1470.674413618834" r="1.2847139104719048" fill="#f0c987" opacity="0.5801669786186472"/><circle cx="446.4996821585476" cy="1279.3400846505829" r="0.8200128384707901" fill="#b08aeb" opacity="0.658114084817213"/><circle cx="1501.3595344642604" cy="1015.1032100744952" r="1.5619543098856679" fill="#f0c987" opacity="0.3334970104938072"/><circle cx="106.59605579913833" cy="1380.439950486154" r="1.14452822516751" fill="#c9a87c" opacity="0.43566071091385444"/><circle cx="668.4165349801692" cy="1464.6827252848118" r="1.3460441451897456" fill="#f0c987" opacity="0.3172822759357542"/><circle cx="1501.0014666253503" cy="1550.7405061894547" r="0.9142743502591226" fill="#b08aeb" opacity="0.37245838702251977"/><circle cx="1005.8737552762674" cy="849.7373433053285" r="0.8470458563264682" fill="#f0c987" opacity="0.47827474921968155"/><circle cx="432.83578571082376" cy="1285.886311747588" r="1.7933987818698474" fill="#f0c987" opacity="0.3147797406177107"/><circle cx="1172.9286134917018" cy="881.6786048180057" r="0.827347795792534" fill="#b08aeb" opacity="0.4899042554070935"/><circle cx="170.05015204334626" cy="1310.2722245467423" r="1.1186131029412993" fill="#b08aeb" opacity="0.4980006293830461"/><circle cx="1552.499836762976" cy="492.45287999798927" r="0.8582173435310173" fill="#f0c987" opacity="0.3918264995297927"/><circle cx="1331.6584692231193" cy="1130.7606426339646" r="1.3631723386620176" fill="#b08aeb" opacity="0.4618790834827365"/><circle cx="1571.0110909269872" cy="1339.1813412883112" r="0.6171061551933539" fill="#b08aeb" opacity="0.5501793257620609"/><circle cx="689.185132542211" cy="88.64173989873959" r="1.3982732162589042" fill="#c9a87c" opacity="0.4523527141527468"/><circle cx="1072.8692766538857" cy="451.0932516906072" r="0.8906555207909839" fill="#b08aeb" opacity="0.4172233970321342"/><circle cx="296.56324574390567" cy="430.45872981339227" r="0.6043472551993405" fill="#b08aeb" opacity="0.4456565408759907"/><circle cx="1556.196796714202" cy="875.3173985902536" r="0.8933357927302723" fill="#b08aeb" opacity="0.686266708023514"/><circle cx="348.58537145357025" cy="292.7326202520002" r="1.0023993407037253" fill="#b08aeb" opacity="0.3335562243301976"/><circle cx="804.4224102022393" cy="321.56808672165147" r="1.2056827674171753" fill="#b08aeb" opacity="0.3019802126015773"/><circle cx="1307.2708498210118" cy="230.18422603024433" r="1.30416087843478" fill="#b08aeb" opacity="0.4575914562418882"/><circle cx="486.7912963589415" cy="372.49530654528974" r="1.30269994101796" fill="#f0c987" opacity="0.5116758193172439"/><circle cx="1052.0698773002764" cy="1145.5895040516984" r="1.654908832280868" fill="#b08aeb" opacity="0.45580658842418"/><circle cx="1153.0836341944823" cy="790.7052057917493" r="0.9410118942632297" fill="#f0c987" opacity="0.5474828679657562"/><circle cx="70.06090670653737" cy="1336.46326917423" r="1.6703308270542134" fill="#c9a87c" opacity="0.5509328497327706"/><circle cx="222.89217603072694" cy="838.0116552456277" r="1.205245261506553" fill="#f0c987" opacity="0.6339750373748105"/><circle cx="1322.2545944031683" cy="934.4984268899819" r="1.6713956836866095" fill="#f0c987" opacity="0.5731581478002002"/><circle cx="136.1467245955529" cy="66.97936216703883" r="1.3645438524547888" fill="#b08aeb" opacity="0.6838064286259307"/><circle cx="1337.3139196799536" cy="893.6435943934955" r="1.3533205302254023" fill="#f0c987" opacity="0.5504905835731144"/><circle cx="782.8709037756072" cy="5.302923404556736" r="1.5572370624850231" fill="#c9a87c" opacity="0.5993061480894823"/><circle cx="1436.5721289539315" cy="147.1070845043597" r="1.2311881816332075" fill="#b08aeb" opacity="0.59829116385218"/><circle cx="403.5096503403041" cy="119.11999995867752" r="0.9186698666344788" fill="#f0c987" opacity="0.5917340152157586"/><circle cx="369.17780327592595" cy="1039.8916480032813" r="1.1524080767686558" fill="#f0c987" opacity="0.6382125001626029"/><circle cx="766.4162625130016" cy="1093.9145003237622" r="1.5203641269810273" fill="#f0c987" opacity="0.5467896063112998"/><circle cx="123.95491122848111" cy="235.88011660305187" r="0.9047283379870744" fill="#b08aeb" opacity="0.5972869029429162"/><circle cx="993.8412018747531" cy="213.50561395250799" r="1.1789048379122704" fill="#f0c987" opacity="0.4943192191981457"/><circle cx="1107.4962761127167" cy="1081.1322509004392" r="0.9490277741152429" fill="#b08aeb" opacity="0.506614277617763"/><circle cx="745.4361732761757" cy="1227.4716152966362" r="1.7919604887991811" fill="#b08aeb" opacity="0.5196306025959552"/><circle cx="1565.001178811243" cy="1498.0069455259463" r="0.6210053469799953" fill="#c9a87c" opacity="0.4835883291854388"/><circle cx="1548.9732026411193" cy="719.1215514417523" r="0.922388688208297" fill="#f0c987" opacity="0.38393488799498904"/><circle cx="119.38058831062754" cy="144.48495080161888" r="1.4969834136134301" fill="#b08aeb" opacity="0.4047235874913344"/><circle cx="212.16811660964171" cy="1312.3472169836543" r="1.2104932243785371" fill="#b08aeb" opacity="0.6547448638459371"/><circle cx="370.21376488075185" cy="1436.3291129606393" r="1.1833687877125787" fill="#f0c987" opacity="0.3099337612362661"/><circle cx="1519.9353157484068" cy="1090.540986666206" r="1.0865031954820548" fill="#b08aeb" opacity="0.5908731077334499"/><circle cx="550.3362342847126" cy="505.7248725999516" r="1.6082772403775842" fill="#b08aeb" opacity="0.3006965527670013"/><circle cx="1342.577271440739" cy="192.06615614749208" r="1.711678631863664" fill="#b08aeb" opacity="0.5852094263187695"/><circle cx="405.13954606320846" cy="103.96376124500489" r="1.068193280686073" fill="#f0c987" opacity="0.647988771167924"/><circle cx="577.1349182774483" cy="684.8844022233056" r="0.9301863031469756" fill="#f0c987" opacity="0.3193072386999061"/><circle cx="82.58802693696" cy="1059.1650877669235" r="1.3619561964475204" fill="#b08aeb" opacity="0.3595657534877202"/><circle cx="697.9851902838109" cy="504.9621962290887" r="1.527820366978788" fill="#b08aeb" opacity="0.6140570698862232"/><circle cx="1414.8264888407148" cy="1299.1396279532357" r="1.3570749646428972" fill="#c9a87c" opacity="0.6653695549837539"/><circle cx="878.765037100742" cy="1151.3161311218369" r="0.6593712413322808" fill="#b08aeb" opacity="0.5929409873809993"/><circle cx="983.8625163157941" cy="221.7160540162409" r="1.643374615486339" fill="#c9a87c" opacity="0.49423003211312555"/><circle cx="203.69811261609544" cy="755.4945399149256" r="1.0123954231895151" fill="#b08aeb" opacity="0.4191087462179147"/><circle cx="649.9348241805473" cy="381.86403871579506" r="1.1798184295653256" fill="#f0c987" opacity="0.5675503951143257"/><circle cx="267.73194841390887" cy="258.65113824809305" r="0.849447025364084" fill="#b08aeb" opacity="0.6623839640969829"/><circle cx="880.6184675696521" cy="724.7777212412284" r="0.9994011103791753" fill="#b08aeb" opacity="0.6036991430817855"/><circle cx="223.3537023995554" cy="307.851353217192" r="0.7088574097278275" fill="#f0c987" opacity="0.43678209351263664"/><circle cx="510.86038636120054" cy="589.2885358137793" r="1.5712301335002579" fill="#f0c987" opacity="0.3808567371584518"/><circle cx="1199.452172167486" cy="660.4506538252577" r="1.0966602868959952" fill="#b08aeb" opacity="0.5096672571003583"/><circle cx="432.38375590089663" cy="1203.377605224365" r="1.1977750743405493" fill="#b08aeb" opacity="0.52971230735685"/><circle cx="201.39808281365833" cy="805.4331961777889" r="1.355552287015127" fill="#f0c987" opacity="0.6451445396203764"/><circle cx="148.15705145622343" cy="1434.8642140442569" r="1.061472911236499" fill="#b08aeb" opacity="0.5583166850979876"/><circle cx="1526.3097204210283" cy="1357.8938819687241" r="1.6474691835168636" fill="#f0c987" opacity="0.30872420408501333"/><circle cx="680.3198064507458" cy="1221.9052302324355" r="1.5650991213911918" fill="#b08aeb" opacity="0.6873125063990846"/><circle cx="0.2859005110011026" cy="626.4337531356633" r="1.7121927284731928" fill="#b08aeb" opacity="0.6302356825109166"/><circle cx="1555.5857950323868" cy="397.54445294269533" r="0.7308551987153328" fill="#c9a87c" opacity="0.36175135419389076"/><circle cx="1555.0200305232413" cy="174.22466208327467" r="1.5904744212782558" fill="#b08aeb" opacity="0.5804014851073864"/><circle cx="136.0054081857312" cy="1242.9785852378159" r="0.6016392479744429" fill="#c9a87c" opacity="0.35026070842914825"/><circle cx="1471.872175187966" cy="1032.8092421891884" r="0.964538713953807" fill="#b08aeb" opacity="0.35118673928520894"/><circle cx="845.2050284897218" cy="699.8888456652392" r="1.5166128615629617" fill="#b08aeb" opacity="0.3397779138992783"/><circle cx="839.0986912672574" cy="932.6255582773895" r="1.065698336907165" fill="#c9a87c" opacity="0.38943321344401594"/><circle cx="1.8432380016044192" cy="859.9621093454514" r="1.7956488620700597" fill="#b08aeb" opacity="0.4114414601294397"/><circle cx="1031.3210229803467" cy="1414.0384464544964" r="1.1703650640810523" fill="#f0c987" opacity="0.3939072386831111"/><circle cx="46.84936953323149" cy="658.8962400514323" r="1.379579975969176" fill="#f0c987" opacity="0.32212348586853556"/><circle cx="797.2963915449204" cy="1079.1412192245525" r="1.1040190465547925" fill="#b08aeb" opacity="0.40290244885635523"/><circle cx="1480.2573248173956" cy="362.85771719149886" r="0.640916908047999" fill="#b08aeb" opacity="0.4352206281373865"/><circle cx="579.7118268318972" cy="634.173133350368" r="0.6081041586136599" fill="#c9a87c" opacity="0.4168444834325588"/><circle cx="107.89193159602384" cy="793.1129809601155" r="0.8404965637181616" fill="#f0c987" opacity="0.606342842638506"/><circle cx="369.2941005839595" cy="354.308501065039" r="1.5125648876071027" fill="#c9a87c" opacity="0.41797314020695703"/><circle cx="793.2235671293533" cy="299.70114107699607" r="0.8679889662717528" fill="#f0c987" opacity="0.46681163284300564"/><circle cx="1518.0180858946103" cy="234.21288635639587" r="1.0721519713493441" fill="#c9a87c" opacity="0.3851796299923322"/><circle cx="227.05772418242614" cy="82.94486653636196" r="0.6721623049745394" fill="#b08aeb" opacity="0.4573286785174666"/><circle cx="1172.358025469846" cy="1596.0476884765767" r="1.7179145976808705" fill="#f0c987" opacity="0.43169710394943805"/><circle cx="1043.9491979584877" cy="839.6761267937235" r="1.161138993786815" fill="#b08aeb" opacity="0.424730857206672"/><circle cx="1342.6031991706325" cy="1575.972608705729" r="1.1309221759670463" fill="#f0c987" opacity="0.343583053359004"/><circle cx="447.69028521493635" cy="562.3469760439772" r="1.7466177989706932" fill="#f0c987" opacity="0.34948331284859446"/><circle cx="608.207504232278" cy="1229.9713351914122" r="0.9704390539706467" fill="#f0c987" opacity="0.6215744985116998"/><circle cx="78.81173736162754" cy="757.542481371353" r="1.047257267309985" fill="#f0c987" opacity="0.6678025676201209"/><circle cx="517.2946973353488" cy="1179.711686336915" r="1.1694412085141126" fill="#f0c987" opacity="0.5526648503863866"/><circle cx="1298.9192441154514" cy="1226.668803748758" r="0.648779380699107" fill="#f0c987" opacity="0.31394175429359256"/><circle cx="1285.3409280786123" cy="99.20623608846597" r="0.833929742103399" fill="#c9a87c" opacity="0.32514069646165306"/><circle cx="542.5112529155526" cy="435.70346039498935" r="1.749227526370547" fill="#b08aeb" opacity="0.5467913926946686"/><circle cx="1194.3006243304699" cy="1103.3237495003177" r="1.7090736890640588" fill="#c9a87c" opacity="0.41896235049894925"/><circle cx="1466.3353658397" cy="1014.3680685339893" r="1.7319001710295567" fill="#f0c987" opacity="0.3097026819766114"/><circle cx="171.6181930922156" cy="1144.9138993832785" r="1.1588926877431027" fill="#b08aeb" opacity="0.6105426710442149"/><circle cx="1461.6703442327748" cy="1303.6804019626836" r="0.7592487298974342" fill="#f0c987" opacity="0.4986162429539538"/><circle cx="1284.1093174345044" cy="1181.5808213152263" r="1.587306303013354" fill="#c9a87c" opacity="0.609123751972065"/><circle cx="377.82801780462023" cy="1377.9877939170453" r="1.152937436358855" fill="#c9a87c" opacity="0.613533213085677"/><circle cx="126.42379417282079" cy="315.69886674505943" r="1.503462804793752" fill="#f0c987" opacity="0.3989230048887633"/><circle cx="1039.2735962136235" cy="770.7038468431787" r="1.253539943627343" fill="#b08aeb" opacity="0.3642769544728272"/><circle cx="1413.5594022896457" cy="1580.5181273480064" r="0.9178695794159315" fill="#f0c987" opacity="0.33363303902250835"/><circle cx="673.6964404401214" cy="1581.4914191934008" r="1.76653998297718" fill="#f0c987" opacity="0.36927674482523287"/><circle cx="666.9450099578352" cy="992.4922334106273" r="1.4089303425097464" fill="#f0c987" opacity="0.5991908178882734"/><circle cx="1247.6009469136138" cy="470.2774678919571" r="0.935276292862453" fill="#b08aeb" opacity="0.4070663522868485"/><circle cx="1180.9078843633538" cy="318.70414542433923" r="0.8969149516737738" fill="#f0c987" opacity="0.39813611875624655"/><circle cx="450.166557838533" cy="1452.1091649327368" r="0.8259001612037831" fill="#b08aeb" opacity="0.32592163800021884"/><circle cx="1587.9179626220373" cy="811.7192211903184" r="0.8776571331886112" fill="#b08aeb" opacity="0.6233771565572692"/><circle cx="1585.5290417316335" cy="163.7318730889808" r="1.1697153110756728" fill="#b08aeb" opacity="0.6276410824987696"/><circle cx="1463.0008861288582" cy="64.57898470022894" r="0.9524129590352715" fill="#f0c987" opacity="0.347686651499245"/><circle cx="960.7892986889501" cy="1324.680061139986" r="0.8329939299539364" fill="#c9a87c" opacity="0.3300466339952855"/><circle cx="1385.8037254543185" cy="718.5821724300645" r="0.9119378665834506" fill="#f0c987" opacity="0.611110510423051"/><circle cx="169.24809977361298" cy="953.8353050912153" r="1.3439375759634342" fill="#b08aeb" opacity="0.38705816876129656"/><circle cx="544.0264957114396" cy="70.66644673319367" r="1.7998485111139448" fill="#f0c987" opacity="0.3152943986637096"/><circle cx="1303.5899521276929" cy="1310.1329723268655" r="1.0907938749639965" fill="#c9a87c" opacity="0.4487236982141289"/><circle cx="499.5131740323872" cy="325.4524353917429" r="1.5543374016489855" fill="#f0c987" opacity="0.5192179336652368"/><circle cx="653.0720722840757" cy="1273.350195828637" r="1.39683172300581" fill="#c9a87c" opacity="0.3618208665823398"/><circle cx="145.84415737460077" cy="261.9029092523112" r="1.4344870651170631" fill="#b08aeb" opacity="0.46391556855511284"/><circle cx="1068.4975064706298" cy="668.5526127003293" r="0.6616328207763602" fill="#b08aeb" opacity="0.5981350259975196"/><circle cx="662.528042989318" cy="29.14109068210564" r="1.5199951439793737" fill="#f0c987" opacity="0.6208880107515495"/><circle cx="625.1697865489923" cy="647.9575062235256" r="1.7303848922778062" fill="#f0c987" opacity="0.4736656931091266"/><circle cx="678.0076874916467" cy="1312.589729910946" r="1.0874612204235405" fill="#b08aeb" opacity="0.6531351785800669"/><circle cx="1236.8871827428886" cy="207.96015280287713" r="0.6620344837148295" fill="#b08aeb" opacity="0.3569987226744493"/><circle cx="142.44977918701773" cy="995.5113521483845" r="1.0450123495213592" fill="#f0c987" opacity="0.5017852251877952"/><circle cx="556.711903611362" cy="258.9035573143825" r="0.8061423622861486" fill="#b08aeb" opacity="0.32683869632718815"/><circle cx="784.8154396242595" cy="1287.7017830865952" r="1.7602512878600636" fill="#f0c987" opacity="0.37893668205027364"/><circle cx="1339.667665279814" cy="69.59574193413935" r="1.6953583581692264" fill="#c9a87c" opacity="0.42581038788966696"/><circle cx="1481.8685011430707" cy="620.6322918688585" r="1.6850650165585601" fill="#f0c987" opacity="0.5481371870285765"/><circle cx="1024.519083330936" cy="1370.5400731810937" r="1.345263705293696" fill="#f0c987" opacity="0.545891642112587"/><circle cx="1326.7003234977149" cy="292.74486977371305" r="0.861764252558761" fill="#c9a87c" opacity="0.4598982332305581"/><circle cx="250.3662393519445" cy="574.732269323548" r="0.7793605707322855" fill="#f0c987" opacity="0.6882769189026435"/><circle cx="65.75845341518533" cy="899.7492294607756" r="1.5089535058044206" fill="#b08aeb" opacity="0.3152514805433047"/><circle cx="188.36962449355727" cy="959.2316324202238" r="1.2600622044415144" fill="#b08aeb" opacity="0.5508169674220269"/><circle cx="1038.4445717343312" cy="493.1385944202502" r="0.8991106190598592" fill="#b08aeb" opacity="0.45568482178104724"/><circle cx="714.8630321452426" cy="701.3641497941484" r="0.6280503362730868" fill="#b08aeb" opacity="0.5475567519251632"/><circle cx="744.4370178610196" cy="714.9101944394729" r="1.3422903100845953" fill="#f0c987" opacity="0.6275880946465999"/><circle cx="1296.8469676163058" cy="640.5477536568172" r="0.680544788793825" fill="#b08aeb" opacity="0.4434300286489695"/><circle cx="146.74103024342048" cy="707.147413543964" r="1.2121934979298334" fill="#f0c987" opacity="0.3163067163248408"/><circle cx="131.58564474732853" cy="1173.5683597770435" r="1.5331633036171808" fill="#f0c987" opacity="0.5045926930903433"/><circle cx="1203.2942116728314" cy="1431.7879841072872" r="1.3832947875636932" fill="#f0c987" opacity="0.6136971090322307"/><circle cx="1371.3121779725632" cy="1593.7986923947783" r="1.4785012694527169" fill="#f0c987" opacity="0.6259957793640734"/><circle cx="210.58796622428986" cy="1417.1119152530428" r="0.9454579170641835" fill="#f0c987" opacity="0.6243979719759262"/><circle cx="1097.8143309161844" cy="1153.7268749545035" r="0.8653521364824432" fill="#c9a87c" opacity="0.6332144330468696"/><circle cx="1209.887626793632" cy="254.02791886137717" r="1.6758446897286032" fill="#b08aeb" opacity="0.40999703677017146"/><circle cx="229.71567218496068" cy="803.5486932316754" r="1.7038893742570962" fill="#b08aeb" opacity="0.3833293366190426"/><circle cx="985.3859842539665" cy="379.8386850247086" r="1.04672033819705" fill="#b08aeb" opacity="0.37957685942082514"/><circle cx="257.9669551440688" cy="1498.2460174345752" r="1.4156159460052042" fill="#f0c987" opacity="0.6581652414108539"/><circle cx="1267.3986528500236" cy="422.94536966179237" r="1.5219188737635725" fill="#b08aeb" opacity="0.31942863057946763"/><circle cx="1545.8478674048433" cy="724.8617476842418" r="1.225743015826139" fill="#f0c987" opacity="0.5754914846495834"/><circle cx="403.25055113976714" cy="857.1220353815104" r="1.6279192631923234" fill="#b08aeb" opacity="0.5951692485739905"/><circle cx="423.60659093546593" cy="1584.797196018034" r="1.2928326142984221" fill="#f0c987" opacity="0.4441005537832643"/><circle cx="707.6506046062386" cy="282.80969399659205" r="1.4923136647759074" fill="#c9a87c" opacity="0.3193165817749005"/><circle cx="405.84400069799943" cy="1022.7805491203931" r="1.7808662373152067" fill="#b08aeb" opacity="0.534348130012927"/><circle cx="1172.8620410179014" cy="1195.3916553711074" r="0.8659650130513139" fill="#b08aeb" opacity="0.41638864760414374"/><circle cx="668.2991446575878" cy="582.5583922331624" r="0.6573316377284225" fill="#c9a87c" opacity="0.4953578002073158"/><circle cx="1044.9734812448464" cy="35.66323583594588" r="0.6031385919492348" fill="#f0c987" opacity="0.44198502988737454"/><circle cx="836.9420094150488" cy="854.5809772522325" r="1.0958861552201888" fill="#f0c987" opacity="0.4204619931849587"/><circle cx="326.6949935702625" cy="998.2872942503892" r="1.1698821737643192" fill="#f0c987" opacity="0.35389947895441054"/><circle cx="1131.9561856903204" cy="721.3649641967376" r="0.6764023718673893" fill="#b08aeb" opacity="0.3578766520955729"/><circle cx="643.1246258207623" cy="422.783743943398" r="0.6137952451956024" fill="#c9a87c" opacity="0.5579789454367181"/><circle cx="1428.2824915687168" cy="951.5588241291533" r="1.2941669980623207" fill="#c9a87c" opacity="0.5407525865350875"/><circle cx="1173.6357986074884" cy="397.5952287328143" r="1.6842041641509495" fill="#c9a87c" opacity="0.3176007928297773"/><circle cx="40.3603840588179" cy="297.05261275373454" r="0.7910599445555733" fill="#f0c987" opacity="0.6646967851485974"/><circle cx="19.760151060099318" cy="881.4767319774616" r="1.7291047292702633" fill="#f0c987" opacity="0.3569066179191418"/><circle cx="829.2129469881411" cy="1028.3098996513868" r="1.3771160481116471" fill="#c9a87c" opacity="0.46609780732804773"/><circle cx="279.4231594631196" cy="495.01198606213546" r="0.9603193994697673" fill="#b08aeb" opacity="0.3193963110269944"/><circle cx="1144.6377818394462" cy="10.159043969616022" r="1.6133189717231464" fill="#b08aeb" opacity="0.5980749783285251"/><circle cx="128.7656872481696" cy="1048.8500172196295" r="0.8104700734551109" fill="#b08aeb" opacity="0.6986441913404514"/><circle cx="371.6747003080815" cy="62.10810093005321" r="1.002619268518155" fill="#b08aeb" opacity="0.5998616246139352"/><circle cx="1138.6947638098345" cy="425.5803303225747" r="1.2645453096559782" fill="#c9a87c" opacity="0.4744210889510324"/><circle cx="1555.026772800639" cy="472.98718264106725" r="1.7142847981912568" fill="#f0c987" opacity="0.6576711839943991"/><circle cx="1408.0723226955959" cy="24.3643304082104" r="0.912442382318102" fill="#f0c987" opacity="0.39444371712721255"/><circle cx="1511.5166325472153" cy="1193.8421596879768" r="0.992245675849351" fill="#b08aeb" opacity="0.6520659190079783"/><circle cx="961.9694738288849" cy="607.1182955213592" r="1.6223135199907066" fill="#c9a87c" opacity="0.6686711600209562"/><circle cx="751.188712980038" cy="1343.5380283667837" r="1.437141850647763" fill="#b08aeb" opacity="0.643009102423539"/><circle cx="1529.1144695833125" cy="374.1255708973464" r="1.6617104468442574" fill="#b08aeb" opacity="0.6156809574722233"/><circle cx="996.1953113714729" cy="124.4837589884348" r="1.6929476753313488" fill="#f0c987" opacity="0.35783796618257047"/><circle cx="179.02886994693716" cy="995.1506606215099" r="0.794173500044915" fill="#f0c987" opacity="0.690963229959731"/><circle cx="49.39178278028287" cy="221.44350639134896" r="1.3722536769558025" fill="#f0c987" opacity="0.31705852954687985"/><circle cx="1178.8564210735449" cy="105.22442885038821" r="1.3085673608938038" fill="#c9a87c" opacity="0.4453624463060861"/><circle cx="1426.048346330684" cy="105.51746940272562" r="1.6413507231095963" fill="#b08aeb" opacity="0.6657635113932086"/><circle cx="171.38542230817552" cy="329.15746215773146" r="0.7343636694597657" fill="#f0c987" opacity="0.3137707291521175"/><circle cx="1320.096430199461" cy="1010.4583934814837" r="0.9448381079177439" fill="#f0c987" opacity="0.3399508361001424"/><circle cx="1267.1476692839133" cy="1034.112312853258" r="0.9533512769860524" fill="#b08aeb" opacity="0.4346063239090603"/><circle cx="33.46953810335158" cy="410.72362578031357" r="0.9391118649996045" fill="#b08aeb" opacity="0.5863048754926085"/><circle cx="1456.5346279243015" cy="1230.7800050258538" r="1.3224100426173568" fill="#b08aeb" opacity="0.4904331113439122"/><circle cx="989.241370506941" cy="49.570176470945526" r="1.0955051246099023" fill="#f0c987" opacity="0.47457983350343214"/><circle cx="554.8506673448284" cy="1127.4551516546856" r="1.2454566529342301" fill="#f0c987" opacity="0.38662970278975384"/><circle cx="919.2654588199991" cy="459.37549078907074" r="1.1232689827796731" fill="#b08aeb" opacity="0.5094222939075087"/><circle cx="1219.4896310629658" cy="1564.5851260896268" r="0.6052340031963914" fill="#b08aeb" opacity="0.4963291975727349"/><circle cx="1112.3327111813055" cy="1320.5438278260135" r="1.7605874284617453" fill="#c9a87c" opacity="0.5370219360208084"/><circle cx="416.9201323748515" cy="1510.1918239461822" r="0.940475703614124" fill="#f0c987" opacity="0.38588573616233235"/><circle cx="797.3049660419347" cy="175.8771889056124" r="1.3638380059612651" fill="#c9a87c" opacity="0.33235303905693203"/><circle cx="1259.0930116719949" cy="1004.6915212469603" r="1.0267404743595283" fill="#b08aeb" opacity="0.4605082271352547"/><circle cx="1426.9467579174927" cy="1192.3515210887538" r="1.10655599434777" fill="#b08aeb" opacity="0.5583450735365569"/><circle cx="329.78685263563426" cy="421.11267361713465" r="1.68145882080439" fill="#b08aeb" opacity="0.5004760717484497"/><circle cx="1571.8558297631575" cy="1009.1904429623552" r="1.7327041041336182" fill="#c9a87c" opacity="0.35075220922095945"/><circle cx="1207.1610890535685" cy="1204.783065382825" r="1.3755598607708583" fill="#b08aeb" opacity="0.4393941777395638"/><circle cx="834.7714919486849" cy="1388.7971620929964" r="1.1403678923437015" fill="#b08aeb" opacity="0.5214943937718488"/><circle cx="271.28085450121324" cy="702.0768486149473" r="1.5281222217429837" fill="#f0c987" opacity="0.5316679067344202"/><circle cx="534.4860012771841" cy="1028.321491302556" r="1.4358766010815538" fill="#b08aeb" opacity="0.5030813640104943"/><circle cx="482.41231149119113" cy="1125.0658610644823" r="1.6123948361039084" fill="#f0c987" opacity="0.3618377349476101"/><circle cx="1559.6277385661724" cy="1157.0558229275057" r="1.3234741198019275" fill="#f0c987" opacity="0.4394528334168325"/><circle cx="524.9201173280859" cy="302.83745835647767" r="1.770177849724607" fill="#f0c987" opacity="0.5914929210988442"/><circle cx="263.3624429987156" cy="1052.6397478775739" r="0.834518456914123" fill="#f0c987" opacity="0.3603840380425238"/><circle cx="1271.820477272335" cy="1173.2681548286007" r="1.1219076032086064" fill="#f0c987" opacity="0.37847637268686013"/><circle cx="449.2870474629873" cy="1416.3969801466608" r="1.156699624961003" fill="#b08aeb" opacity="0.3050469201774034"/><circle cx="1109.5029619032402" cy="800.7784960374984" r="1.3588532861728664" fill="#f0c987" opacity="0.48531169897948884"/><circle cx="411.5416956389996" cy="1181.1846185292407" r="0.6066211915696781" fill="#b08aeb" opacity="0.3969136980414506"/><circle cx="1121.8590685603383" cy="939.8829430234438" r="1.376641321967436" fill="#c9a87c" opacity="0.6383974201338428"/><circle cx="1363.910379750802" cy="1087.3544357002372" r="1.369846586503525" fill="#b08aeb" opacity="0.48156107793011915"/><circle cx="415.6929329428307" cy="1121.0402858002997" r="1.673693073566977" fill="#b08aeb" opacity="0.3969584488343538"/><circle cx="1141.0407628135142" cy="1007.383527236681" r="0.9000731871972214" fill="#b08aeb" opacity="0.4694319381795632"/><circle cx="31.451697606668105" cy="1373.6599970977861" r="1.2219027192167493" fill="#f0c987" opacity="0.5644412873095195"/><circle cx="1431.1910707293712" cy="524.8857233307293" r="0.6127585296813406" fill="#f0c987" opacity="0.6327485695178513"/><circle cx="61.03284658459547" cy="869.3758632884203" r="0.7930111323256738" fill="#f0c987" opacity="0.6127166806200929"/><circle cx="830.7519596601426" cy="161.7391925711571" r="1.289472595960957" fill="#b08aeb" opacity="0.5164141273647007"/><circle cx="819.5058586133295" cy="1022.8180622168397" r="1.5947823855571202" fill="#b08aeb" opacity="0.5086753080572242"/><circle cx="1187.3758905884338" cy="731.0553456555533" r="1.7883335681351449" fill="#c9a87c" opacity="0.37352105496076643"/><circle cx="1220.3226200663091" cy="195.8314028871831" r="1.7813620145380704" fill="#f0c987" opacity="0.4421892006324792"/><circle cx="403.9323481840755" cy="610.9387087784311" r="0.6738045932052285" fill="#b08aeb" opacity="0.3300739837246611"/><circle cx="1005.7036363870228" cy="1079.8145693793892" r="1.2962103032930865" fill="#b08aeb" opacity="0.34370338983663107"/><circle cx="1186.3529968318662" cy="1503.890191955444" r="1.232491734369109" fill="#b08aeb" opacity="0.3875652760095305"/><circle cx="739.3864776136013" cy="263.25335656761143" r="1.715302703767486" fill="#f0c987" opacity="0.32755798342696546"/><circle cx="750.6537990832243" cy="899.2862668121426" r="0.8711841685888706" fill="#b08aeb" opacity="0.6855456833430035"/><circle cx="1065.6604604577599" cy="1329.1185119001764" r="1.554308186318092" fill="#b08aeb" opacity="0.46531459232598804"/><circle cx="1215.820688584658" cy="1039.3720403333434" r="1.5358160272277397" fill="#f0c987" opacity="0.48776064918859646"/><circle cx="427.87917499781025" cy="601.8375955516278" r="0.9042589901348148" fill="#f0c987" opacity="0.47044178747778714"/><circle cx="770.5103755318527" cy="1288.6985149596858" r="1.5586955244649503" fill="#b08aeb" opacity="0.4431909687667108"/><circle cx="512.5128207153087" cy="775.8707336007745" r="1.3480367181059827" fill="#b08aeb" opacity="0.33416860300083284"/><circle cx="244.40506611736055" cy="485.06989305550405" r="1.062132829937901" fill="#c9a87c" opacity="0.3341119731304045"/><circle cx="1449.2895165050134" cy="1254.4614904238306" r="0.7684820520637734" fill="#c9a87c" opacity="0.6325311998878425"/><circle cx="23.97734710339563" cy="18.366494294994595" r="1.7421222931623421" fill="#b08aeb" opacity="0.562382695952035"/><circle cx="973.1209409417144" cy="925.5793826905792" r="1.625008608999623" fill="#b08aeb" opacity="0.3742653899678754"/><circle cx="554.3105218992852" cy="244.27504788089874" r="1.6849047249777702" fill="#f0c987" opacity="0.6166697398856928"/><circle cx="975.2214061157149" cy="1100.8417202039616" r="1.7726090203042162" fill="#c9a87c" opacity="0.33616232177155586"/><circle cx="1260.9181241583256" cy="1342.0848285799475" r="0.8368446126085065" fill="#c9a87c" opacity="0.5771170831117056"/><circle cx="125.78404834165494" cy="1342.846780283286" r="1.4054742146970256" fill="#f0c987" opacity="0.346792249545645"/><circle cx="423.1909205798882" cy="374.6811965352759" r="0.7672059190861147" fill="#f0c987" opacity="0.4972306893980594"/><circle cx="774.9930079828996" cy="1448.7413423588375" r="1.440505953055968" fill="#f0c987" opacity="0.39862664490394484"/><circle cx="863.2683348608209" cy="1380.604311640133" r="0.6079281374248033" fill="#b08aeb" opacity="0.6363070050498366"/><circle cx="1113.4168930359956" cy="796.1703975832526" r="0.9561809227517177" fill="#b08aeb" opacity="0.4863047372548517"/><circle cx="670.1068997377204" cy="1536.9816622250848" r="0.6904755966113714" fill="#f0c987" opacity="0.5548163663160062"/><circle cx="32.89563190550009" cy="73.39245894656247" r="1.483849560601947" fill="#f0c987" opacity="0.6995944331003897"/><circle cx="817.0009313126966" cy="775.4808873793095" r="1.6770741117998007" fill="#b08aeb" opacity="0.31355879966426436"/><circle cx="1000.4445687163064" cy="541.7704831894076" r="1.6340280144723374" fill="#b08aeb" opacity="0.44646333259734927"/><circle cx="1245.6383886997414" cy="886.6008611985967" r="1.6947985965972419" fill="#b08aeb" opacity="0.4136604232644723"/><circle cx="675.8217603155607" cy="886.4441758718524" r="1.5920698310954713" fill="#b08aeb" opacity="0.4171531300401047"/><circle cx="645.9675232615689" cy="805.9986827884526" r="0.9260375428762853" fill="#f0c987" opacity="0.5025695930266684"/><circle cx="1047.2946464084741" cy="1267.1218170872714" r="0.9970755206850954" fill="#b08aeb" opacity="0.4268375984227091"/><circle cx="204.11312087120007" cy="1556.3995317795382" r="0.7050914685507018" fill="#b08aeb" opacity="0.6985983849765393"/><circle cx="1156.282455376316" cy="1416.9621515992776" r="2.5635615617309635" fill="#d4bdf5" opacity="0.5173948547949547"/><circle cx="173.60081680072153" cy="74.23467862535453" r="2.950745712891249" fill="#f0c987" opacity="0.666268587209582"/><circle cx="1262.4431789021824" cy="1455.7154958683232" r="2.6564361402873837" fill="#f0c987" opacity="0.7158447008689349"/><circle cx="340.0022273000976" cy="1067.2034815977968" r="2.441031064654803" fill="#f0c987" opacity="0.7669361651753375"/><circle cx="1061.7914459860106" cy="1390.7293562528805" r="2.390199983748413" fill="#f0c987" opacity="0.5352120091760829"/><circle cx="590.1909097662218" cy="1316.1770956360795" r="2.9011560680947026" fill="#d4bdf5" opacity="0.6967355131994669"/><circle cx="1379.9207961802526" cy="295.6421187136733" r="1.8479371506412918" fill="#f0c987" opacity="0.5071372196133157"/><circle cx="796.4241214693471" cy="835.4464416429929" r="2.95465874050845" fill="#b08aeb" opacity="0.77082200447929"/><circle cx="920.5141269649522" cy="1469.8074985104615" r="2.4250603682853757" fill="#b08aeb" opacity="0.5049456569402438"/><circle cx="950.1803587910034" cy="1589.0019886221812" r="2.723156027295428" fill="#b08aeb" opacity="0.5543535926670353"/><circle cx="878.0884516482735" cy="132.67957740432993" r="2.4610695279925143" fill="#f0c987" opacity="0.8135202978038599"/><circle cx="683.199679908553" cy="14.92395024014801" r="2.7371127275402785" fill="#f0c987" opacity="0.8453268784152117"/><circle cx="349.1923316663401" cy="194.15594493113133" r="2.461264477855622" fill="#fbe3ab" opacity="0.5964060645682577"/><circle cx="721.2426869101216" cy="1190.7317660738267" r="3.0919244294628068" fill="#fbe3ab" opacity="0.6280557898499673"/><circle cx="1167.5548405569625" cy="134.8633801119721" r="2.680072416219745" fill="#b08aeb" opacity="0.7482323026234945"/><circle cx="1071.2660185378397" cy="1424.011138129837" r="3.0789295967671393" fill="#f0c987" opacity="0.5184313029127087"/><circle cx="18.241549260031675" cy="23.56730560459983" r="2.710976475188844" fill="#f0c987" opacity="0.786070206883388"/><circle cx="622.3179019816231" cy="499.9916998081435" r="2.6401670532852104" fill="#b08aeb" opacity="0.8351947203378278"/><circle cx="974.3171222183587" cy="506.04719361741036" r="3.1282639474045375" fill="#b08aeb" opacity="0.7547182679441073"/><circle cx="1083.0071349915297" cy="231.850444869462" r="2.916305069352594" fill="#fbe3ab" opacity="0.6271429585953235"/><circle cx="1007.5307822447847" cy="668.7435683841973" r="2.340032478342434" fill="#d4bdf5" opacity="0.7751847927157911"/><circle cx="1255.3987354608746" cy="906.906465695924" r="2.2093436091532554" fill="#d4bdf5" opacity="0.521223232281555"/><circle cx="1391.2931395271182" cy="1161.135112970447" r="1.8217008140966573" fill="#d4bdf5" opacity="0.5528921526700113"/><circle cx="935.4691794939262" cy="1562.2200475707534" r="2.1445554429840117" fill="#b08aeb" opacity="0.6355748619115925"/><circle cx="962.8513308935813" cy="1433.7855009359512" r="2.9304740177972413" fill="#f0c987" opacity="0.5991582579239754"/><circle cx="514.4414098625725" cy="428.8368156254293" r="2.0201926188267785" fill="#f0c987" opacity="0.8222086842029925"/><circle cx="461.63431207216945" cy="225.07159485521805" r="3.046857464418465" fill="#fbe3ab" opacity="0.8474924966705433"/><circle cx="438.15789193356414" cy="1361.8920659692271" r="2.9298460525794874" fill="#b08aeb" opacity="0.7396235788014963"/><circle cx="554.9651924915" cy="136.10169339157565" r="2.575144102265443" fill="#fbe3ab" opacity="0.7790860025853531"/><circle cx="1260.304269196798" cy="1155.504964968237" r="3.1751870805594704" fill="#f0c987" opacity="0.6083146364421723"/><circle cx="1084.2591690480222" cy="744.5166791479506" r="2.089220549884428" fill="#f0c987" opacity="0.5891571160795981"/><circle cx="1266.6639612313993" cy="735.547930485748" r="1.9227813746825808" fill="#f0c987" opacity="0.7823012327722221"/><circle cx="372.58629081471605" cy="927.3446860437346" r="3.0557007429253917" fill="#d4bdf5" opacity="0.8097828976188958"/><circle cx="762.5379622717938" cy="942.9258132203772" r="2.064811991883599" fill="#fbe3ab" opacity="0.5673099129070782"/><circle cx="1289.3839085228938" cy="463.67421582729537" r="2.609012430833303" fill="#fbe3ab" opacity="0.6256116929715272"/><circle cx="394.08774429076254" cy="1476.1890291826915" r="2.490576056567256" fill="#d4bdf5" opacity="0.803230133929412"/><circle cx="1012.3879368714553" cy="1259.756077310317" r="2.0186169269837833" fill="#d4bdf5" opacity="0.7090243362681983"/><circle cx="448.8769235546208" cy="971.4186313220274" r="1.9317186672017774" fill="#b08aeb" opacity="0.5716253224510075"/><circle cx="938.737542238044" cy="341.732958097421" r="3.095693465254211" fill="#f0c987" opacity="0.597938571863491"/><circle cx="1514.3993311746328" cy="1227.5983404293079" r="2.9463630367235236" fill="#d4bdf5" opacity="0.8372138708518172"/><circle cx="1349.9947314008534" cy="542.1490812419545" r="3.1924600783961234" fill="#f0c987" opacity="0.6323707076108436"/><circle cx="81.59600537788947" cy="891.8083950237427" r="3.018933686523128" fill="#f0c987" opacity="0.6603983262210519"/><circle cx="1380.7523798712275" cy="1023.747317759951" r="3.0910165739646738" fill="#f0c987" opacity="0.7472317281049028"/><circle cx="411.5099229658911" cy="903.1618861342416" r="2.6968861619062463" fill="#b08aeb" opacity="0.8347470091455433"/><circle cx="292.272453884404" cy="1359.5110793081335" r="2.3192755382662704" fill="#fbe3ab" opacity="0.5822950139425733"/><circle cx="275.3983740643461" cy="1506.7418963415882" r="3.117634362673874" fill="#f0c987" opacity="0.5207468734380907"/><circle cx="1339.5486464394332" cy="75.26761600855866" r="2.9009225347538887" fill="#b08aeb" opacity="0.7483628944221863"/><circle cx="89.22850014039003" cy="231.67610547164142" r="2.8569310457117" fill="#d4bdf5" opacity="0.828783195239552"/><circle cx="943.6570834096112" cy="706.0482473122811" r="2.7135216083197884" fill="#d4bdf5" opacity="0.6647538811964648"/><circle cx="411.2168477779401" cy="198.62970560769017" r="2.473838398840312" fill="#fbe3ab" opacity="0.5590020086950412"/><circle cx="1292.0864718335783" cy="1462.8775677399956" r="3.0490376935724894" fill="#fbe3ab" opacity="0.663764373593251"/><circle cx="1278.1588797093937" cy="251.12987670515673" r="2.965970655596057" fill="#d4bdf5" opacity="0.5272252714402368"/><circle cx="1421.932086337665" cy="223.62045977491292" r="2.426143252411004" fill="#b08aeb" opacity="0.5339455990052145"/><circle cx="1347.598898669912" cy="1005.3930291551831" r="2.4332673829886002" fill="#fbe3ab" opacity="0.6189226758695986"/><circle cx="764.0612616015718" cy="1005.0930424455652" r="1.9998750408349237" fill="#f0c987" opacity="0.577577813771531"/><circle cx="288.3834685531189" cy="722.2042864963303" r="3.0450437680080187" fill="#fbe3ab" opacity="0.6536398593690478"/><circle cx="426.2348582537534" cy="658.8506728024122" r="2.0179610448746983" fill="#d4bdf5" opacity="0.594887496902396"/><circle cx="535.2141714590124" cy="268.4765727600114" r="2.4874097075531854" fill="#b08aeb" opacity="0.6113233987962055"/><circle cx="182.66906921111374" cy="1565.794831674786" r="1.879594097162791" fill="#fbe3ab" opacity="0.8132631590639174"/><circle cx="895.9079799348754" cy="1336.4516649989264" r="1.9668647509881139" fill="#d4bdf5" opacity="0.7641977978540035"/><circle cx="691.2951825978868" cy="418.4364676247313" r="2.1341450072460746" fill="#b08aeb" opacity="0.5833517755131997"/><circle cx="463.0857994036196" cy="1433.9191456102571" r="1.8804753151927327" fill="#d4bdf5" opacity="0.7542655199206351"/><circle cx="230.96187089241943" cy="1023.695123386723" r="2.418953416718783" fill="#fbe3ab" opacity="0.6777273481288335"/><circle cx="708.8131785622004" cy="1263.303909686145" r="3.1211047272177144" fill="#d4bdf5" opacity="0.600238062180856"/><circle cx="696.3990097111213" cy="1459.170203315503" r="2.105570883956448" fill="#fbe3ab" opacity="0.6999689464512486"/><circle cx="1349.3943116680368" cy="834.6443744950978" r="2.1225883841236355" fill="#f0c987" opacity="0.5614696228418427"/><circle cx="1326.3534198691964" cy="1422.9204965657682" r="2.823189113241974" fill="#fbe3ab" opacity="0.7664478808333051"/><circle cx="329.65105935383826" cy="979.8933109033051" r="2.7908606460677277" fill="#d4bdf5" opacity="0.7840542999451083"/><circle cx="323.665344834761" cy="105.1124774484988" r="2.825801354105672" fill="#f0c987" opacity="0.6428430422721335"/><circle cx="829.5346952753919" cy="556.2261740591455" r="2.194460868676536" fill="#b08aeb" opacity="0.7237133402569358"/><circle cx="144.52798384958658" cy="655.2268375184054" r="2.8681729321722695" fill="#d4bdf5" opacity="0.5466486808300375"/><circle cx="397.34397156300736" cy="901.0041693642474" r="3.179998742892901" fill="#d4bdf5" opacity="0.5128347844423415"/><circle cx="919.8715638505821" cy="1372.9170322971281" r="2.298619634864868" fill="#f0c987" opacity="0.8262416188122226"/><circle cx="193.23512740991387" cy="1143.343916472507" r="2.9431497332607455" fill="#d4bdf5" opacity="0.8029151619925383"/><circle cx="1246.598967447119" cy="1388.9463231729162" r="2.6068364922094522" fill="#d4bdf5" opacity="0.8143148699508815"/><circle cx="1396.4853537999218" cy="1526.483174931358" r="2.4927249507979634" fill="#fbe3ab" opacity="0.6796599239779609"/><circle cx="33.10048870489357" cy="1547.8820572922968" r="2.113178580006292" fill="#f0c987" opacity="0.563837839728282"/><circle cx="499.06064570496176" cy="888.5763742584427" r="3.137495659605436" fill="#fbe3ab" opacity="0.506807907549776"/><circle cx="418.27087423428696" cy="1339.73097323654" r="2.6915720642140175" fill="#fbe3ab" opacity="0.6623790359721999"/><circle cx="1124.2325478102248" cy="164.58331764578526" r="3.0173365766664504" fill="#f0c987" opacity="0.750984349195957"/><circle cx="436.82091382800525" cy="743.7525688837993" r="2.6202629171390663" fill="#f0c987" opacity="0.766528977810353"/><circle cx="195.25981094292462" cy="649.0408287577385" r="1.9917364847528694" fill="#fbe3ab" opacity="0.7071342291653275"/><circle cx="235.55285535783295" cy="916.5462787396277" r="2.845209934974143" fill="#f0c987" opacity="0.5575130636384191"/><circle cx="1500.1295403837141" cy="621.9915949567464" r="2.3886777090717577" fill="#f0c987" opacity="0.7939029467178627"/><circle cx="633.013558035991" cy="1506.0670978065223" r="2.8876699872952445" fill="#fbe3ab" opacity="0.6184919956344915"/><circle cx="1341.709558189899" cy="1144.8456935355887" r="2.980236729783634" fill="#d4bdf5" opacity="0.6975485926980708"/><circle cx="1304.0691185068135" cy="1356.2090821395004" r="1.8749744434269642" fill="#d4bdf5" opacity="0.6810810729959623"/><circle cx="398.85511243935366" cy="675.4178245439336" r="2.6857657463563704" fill="#fbe3ab" opacity="0.6275511897218147"/><circle cx="110.8227410835056" cy="692.8648495767696" r="2.5066845203697423" fill="#fbe3ab" opacity="0.5072897775390555"/><circle cx="673.1647487842579" cy="635.2826211044737" r="3.196507731912349" fill="#f0c987" opacity="0.6588059639306667"/><g opacity="0.6620307792198832">
      <path d="M1294.829749824884 1401.0349628247816 L1297.3428702355143 1412.4836224732087 L1308.7915298839414 1414.996742883839 L1297.3428702355143 1417.5098632944694 L1294.829749824884 1428.9585229428965 L1292.3166294142536 1417.5098632944694 L1280.8679697658265 1414.996742883839 L1292.3166294142536 1412.4836224732087 Z" fill="#fbe3ab"/>
      <circle cx="1294.829749824884" cy="1414.996742883839" r="3.3508272141737954" fill="#fbe3ab"/>
    </g><g opacity="0.9322154382134549">
      <path d="M1468.6869225315918 985.89889312992 L1470.7846864685469 995.45537328716 L1480.3411666257869 997.5531372241152 L1470.7846864685469 999.6509011610704 L1468.6869225315918 1009.2073813183104 L1466.5891585946367 999.6509011610704 L1457.0326784373967 997.5531372241152 L1466.5891585946367 995.45537328716 Z" fill="#fbe3ab"/>
      <circle cx="1468.6869225315918" cy="997.5531372241152" r="2.7970185826068343" fill="#fbe3ab"/>
    </g><g opacity="0.8017919453444207">
      <path d="M994.0124523699783 390.24707698521263 L995.935346470541 399.00692788777644 L1004.6951973731049 400.92982198833926 L995.935346470541 402.85271608890207 L994.0124523699783 411.6125669914659 L992.0895582694155 402.85271608890207 L983.3297073668517 400.92982198833926 L992.0895582694155 399.00692788777644 Z" fill="#fbe3ab"/>
      <circle cx="994.0124523699783" cy="400.92982198833926" r="2.5638588007503835" fill="#fbe3ab"/>
    </g><g opacity="0.6921334406071808">
      <path d="M460.0365532999495 476.8311090959828 L462.16553585604305 486.5298074070755 L471.86423416713575 488.65878996316906 L462.16553585604305 490.7877725192626 L460.0365532999495 500.4864708303553 L457.90757074385596 490.7877725192626 L448.20887243276326 488.65878996316906 L457.90757074385596 486.5298074070755 Z" fill="#fbe3ab"/>
      <circle cx="460.0365532999495" cy="488.65878996316906" r="2.838643408124693" fill="#fbe3ab"/>
    </g><g opacity="0.8039919990552367">
      <path d="M135.15849669477066 930.0097282141053 L137.74821686020528 941.8073423010852 L149.54583094718527 944.3970624665199 L137.74821686020528 946.9867826319545 L135.15849669477066 958.7843967189344 L132.56877652933605 946.9867826319545 L120.77116244235606 944.3970624665199 L132.56877652933605 941.8073423010852 Z" fill="#f0c987"/>
      <circle cx="135.15849669477066" cy="944.3970624665199" r="3.4529602205795036" fill="#f0c987"/>
    </g><g opacity="0.7459392036139237">
      <path d="M1416.3047348689968 1453.744972704915 L1418.320033697979 1462.9257784813897 L1427.5008394744536 1464.9410773103718 L1418.320033697979 1466.956376139354 L1416.3047348689968 1476.1371819158287 L1414.2894360400146 1466.956376139354 L1405.10863026354 1464.9410773103718 L1414.2894360400146 1462.9257784813897 Z" fill="#fbe3ab"/>
      <circle cx="1416.3047348689968" cy="1464.9410773103718" r="2.6870651053096606" fill="#fbe3ab"/>
    </g><g opacity="0.8931921105799282">
      <path d="M1184.6457308091474 449.38060173471257 L1186.461439825382 457.6521650308924 L1194.7330031215618 459.467874047127 L1186.461439825382 461.2835830633616 L1184.6457308091474 469.5551463595414 L1182.8300217929127 461.2835830633616 L1174.558458496733 459.467874047127 L1182.8300217929127 457.6521650308924 Z" fill="#f0c987"/>
      <circle cx="1184.6457308091474" cy="459.467874047127" r="2.4209453549794677" fill="#f0c987"/>
    </g><g opacity="0.8113092006156839">
      <path d="M1040.571753819602 309.51373993916263 L1042.8025367553275 319.6761955352452 L1052.96499235141 321.9069784709706 L1042.8025367553275 324.13776140669603 L1040.571753819602 334.3002170027786 L1038.3409708838765 324.13776140669603 L1028.178515287794 321.9069784709706 L1038.3409708838765 319.6761955352452 Z" fill="#fbe3ab"/>
      <circle cx="1040.571753819602" cy="321.9069784709706" r="2.974377247633917" fill="#fbe3ab"/>
    </g><g opacity="0.7347890560834353">
      <path d="M980.4794964534741 741.5504128920497 L982.0625138099455 748.761936404864 L989.2740373227597 750.3449537613353 L982.0625138099455 751.9279711178067 L980.4794964534741 759.1394946306209 L978.8964790970027 751.9279711178067 L971.6849555841885 750.3449537613353 L978.8964790970027 748.761936404864 Z" fill="#f0c987"/>
      <circle cx="980.4794964534741" cy="750.3449537613353" r="2.110689808628549" fill="#f0c987"/>
    </g><g opacity="0.7887590300601524">
      <path d="M302.0865382248102 858.7385062635207 L304.73729962146274 870.8141970704933 L316.8129904284353 873.4649584671457 L304.73729962146274 876.1157198637982 L302.0865382248102 888.1914106707708 L299.4357768281577 876.1157198637982 L287.36008602118517 873.4649584671457 L299.4357768281577 870.8141970704933 Z" fill="#fbe3ab"/>
      <circle cx="302.0865382248102" cy="873.4649584671457" r="3.534348528870016" fill="#fbe3ab"/>
    </g><g opacity="0.7639172186850949">
      <path d="M259.6711857541228 1514.4096112151178 L261.27598882858535 1521.7203807765584 L268.58675839002586 1523.325183851021 L261.27598882858535 1524.9299869254835 L259.6711857541228 1532.240756486924 L258.06638267966025 1524.9299869254835 L250.75561311821974 1523.325183851021 L258.06638267966025 1521.7203807765584 Z" fill="#fbe3ab"/>
      <circle cx="259.6711857541228" cy="1523.325183851021" r="2.139737432616732" fill="#fbe3ab"/>
    </g><g opacity="0.9202450089724736">
      <path d="M455.7119712635588 1571.3572918423522 L457.27068816072 1578.4581132627534 L464.3715095811212 1580.0168301599147 L457.27068816072 1581.575547057076 L455.7119712635588 1588.6763684774771 L454.15325436639756 1581.575547057076 L447.0524329459964 1580.0168301599147 L454.15325436639756 1578.4581132627534 Z" fill="#f0c987"/>
      <circle cx="455.7119712635588" cy="1580.0168301599147" r="2.078289196214976" fill="#f0c987"/>
    </g><g opacity="0.8802013950176977">
      <path d="M881.8056472158289 960.3468540912629 L883.4493989732181 967.8350565415911 L890.9376014235463 969.4788082989803 L883.4493989732181 971.1225600563695 L881.8056472158289 978.6107625066977 L880.1618954584397 971.1225600563695 L872.6736930081115 969.4788082989803 L880.1618954584397 967.8350565415911 Z" fill="#d4bdf5"/>
      <circle cx="881.8056472158289" cy="969.4788082989803" r="2.191669009852186" fill="#d4bdf5"/>
    </g><g opacity="0.8323252240479624">
      <path d="M1334.9280409800667 553.7156938886463 L1337.2438511038752 564.2654955637739 L1347.7936527790027 566.5813056875825 L1337.2438511038752 568.897115811391 L1334.9280409800667 579.4469174865186 L1332.6122308562583 568.897115811391 L1322.0624291811307 566.5813056875825 L1332.6122308562583 564.2654955637739 Z" fill="#f0c987"/>
      <circle cx="1334.9280409800667" cy="566.5813056875825" r="3.0877468317446675" fill="#f0c987"/>
    </g><g opacity="0.7208723888971196">
      <path d="M666.8028514029475 1061.9255467492983 L668.1101814997143 1067.8811616345693 L674.0657963849851 1069.188491731336 L668.1101814997143 1070.4958218281026 L666.8028514029475 1076.4514367133736 L665.4955213061806 1070.4958218281026 L659.5399064209098 1069.188491731336 L665.4955213061806 1067.8811616345693 Z" fill="#fbe3ab"/>
      <circle cx="666.8028514029475" cy="1069.188491731336" r="1.7431067956890385" fill="#fbe3ab"/>
    </g><g opacity="0.910147629847475">
      <path d="M1313.9098267432003 815.780872049752 L1316.1866286627435 826.1529696832272 L1326.5587262962188 828.4297716027705 L1316.1866286627435 830.7065735223139 L1313.9098267432003 841.078671155789 L1311.633024823657 830.7065735223139 L1301.2609271901817 828.4297716027705 L1311.633024823657 826.1529696832272 Z" fill="#d4bdf5"/>
      <circle cx="1313.9098267432003" cy="828.4297716027705" r="3.0357358927244533" fill="#d4bdf5"/>
    </g><g opacity="0.8962256453524934">
      <path d="M429.89223939111537 997.3791820440507 L431.9962968651163 1006.9643327589438 L441.58144758000935 1009.0683902329447 L431.9962968651163 1011.1724477069456 L429.89223939111537 1020.7575984218387 L427.78818191711446 1011.1724477069456 L418.2030312022214 1009.0683902329447 L427.78818191711446 1006.9643327589438 Z" fill="#d4bdf5"/>
      <circle cx="429.89223939111537" cy="1009.0683902329447" r="2.80540996533455" fill="#d4bdf5"/>
    </g><g opacity="0.8550420946710312">
      <path d="M1393.3215630454602 -5.973006854064742 L1395.6419603917102 4.597692167741112 L1406.2126594135161 6.918089513991177 L1395.6419603917102 9.238486860241242 L1393.3215630454602 19.809185882047096 L1391.00116569921 9.238486860241242 L1380.4304666774042 6.918089513991177 L1391.00116569921 4.597692167741112 Z" fill="#d4bdf5"/>
      <circle cx="1393.3215630454602" cy="6.918089513991177" r="3.0938631283334206" fill="#d4bdf5"/>
    </g><g opacity="0.9474813131562632">
      <path d="M635.9894748060991 1581.3323722584034 L637.3118804245061 1587.356664520035 L643.3361726861376 1588.679070138442 L637.3118804245061 1590.001475756849 L635.9894748060991 1596.0257680184807 L634.6670691876922 1590.001475756849 L628.6427769260606 1588.679070138442 L634.6670691876922 1587.356664520035 Z" fill="#fbe3ab"/>
      <circle cx="635.9894748060991" cy="1588.679070138442" r="1.7632074912092526" fill="#fbe3ab"/>
    </g><g opacity="0.8082991334976642">
      <path d="M1396.4180424380252 962.317903891031 L1398.1129334039915 970.0390738471 L1405.8341033600605 971.7339648130663 L1398.1129334039915 973.4288557790327 L1396.4180424380252 981.1500257351016 L1394.7231514720588 973.4288557790327 L1387.0019815159899 971.7339648130663 L1394.7231514720588 970.0390738471 Z" fill="#d4bdf5"/>
      <circle cx="1396.4180424380252" cy="971.7339648130663" r="2.2598546212884805" fill="#d4bdf5"/>
    </g><g opacity="0.8341425619600198">
      <path d="M460.9008398420905 555.0133670654445 L462.5526247961087 562.5381651893052 L470.0774229199694 564.1899501433235 L462.5526247961087 565.8417350973417 L460.9008398420905 573.3665332212024 L459.24905488807224 565.8417350973417 L451.72425676421153 564.1899501433235 L459.24905488807224 562.5381651893052 Z" fill="#d4bdf5"/>
      <circle cx="460.9008398420905" cy="564.1899501433235" r="2.2023799386909486" fill="#d4bdf5"/>
    </g><g opacity="0.9964045939955297">
      <path d="M1037.1218958138677 -1.892804759155414 L1039.4100556198234 8.531034356865081 L1049.8338947358438 10.8191941628208 L1039.4100556198234 13.107353968776518 L1037.1218958138677 23.531193084797014 L1034.833736007912 13.107353968776518 L1024.4098968918915 10.8191941628208 L1034.833736007912 8.531034356865081 Z" fill="#d4bdf5"/>
      <circle cx="1037.1218958138677" cy="10.8191941628208" r="3.0508797412742914" fill="#d4bdf5"/>
    </g><g opacity="0.7007467165773813">
      <path d="M710.4494488241999 286.00224304029535 L712.0219818292346 293.16600450767606 L719.1857432966154 294.7385375127109 L712.0219818292346 296.3110705177457 L710.4494488241999 303.4748319851264 L708.8769158191651 296.3110705177457 L701.7131543517843 294.7385375127109 L708.8769158191651 293.16600450767606 Z" fill="#d4bdf5"/>
      <circle cx="710.4494488241999" cy="294.7385375127109" r="2.096710673379732" fill="#d4bdf5"/>
    </g><g opacity="0.7633534214580988">
      <path d="M930.5318144790799 126.40611508972964 L933.1024765123005 138.11690879662356 L944.8132702191945 140.68757082984416 L933.1024765123005 143.25823286306476 L930.5318144790799 154.9690265699587 L927.9611524458593 143.25823286306476 L916.2503587389654 140.68757082984416 L927.9611524458593 138.11690879662356 Z" fill="#f0c987"/>
      <circle cx="930.5318144790799" cy="140.68757082984416" r="3.427549377627484" fill="#f0c987"/>
    </g><g opacity="0.968700661395266">
      <path d="M1534.0211549498906 317.05722311416 L1535.7919995297052 325.1244039777599 L1543.859180393305 326.8952485575745 L1535.7919995297052 328.6660931373891 L1534.0211549498906 336.733274000989 L1532.250310370076 328.6660931373891 L1524.1831295064762 326.8952485575745 L1532.250310370076 325.1244039777599 Z" fill="#fbe3ab"/>
      <circle cx="1534.0211549498906" cy="326.8952485575745" r="2.361126106419477" fill="#fbe3ab"/>
    </g><g opacity="0.7549366237380292">
      <path d="M40.92036542227362 396.41485749497645 L43.451710084773694 407.94653873525453 L54.9833913250518 410.4778833977546 L43.451710084773694 413.0092280602547 L40.92036542227362 424.5409093005328 L38.389020759773544 413.0092280602547 L26.85733951949544 410.4778833977546 L38.389020759773544 407.94653873525453 Z" fill="#fbe3ab"/>
      <circle cx="40.92036542227362" cy="410.4778833977546" r="3.375126216666763" fill="#fbe3ab"/>
    </g><g opacity="0.8310429707504092">
      <path d="M861.5993692873973 1586.6670829655566 L863.5176349255818 1595.4058486506194 L872.2564006106446 1597.324114288804 L863.5176349255818 1599.2423799269884 L861.5993692873973 1607.9811456120513 L859.6811036492128 1599.2423799269884 L850.9423379641499 1597.324114288804 L859.6811036492128 1595.4058486506194 Z" fill="#d4bdf5"/>
      <circle cx="861.5993692873973" cy="1597.324114288804" r="2.557687517579352" fill="#d4bdf5"/>
    </g><g opacity="0.7728873681915757">
      <path d="M623.2281263381058 560.9868002463359 L625.271573576726 570.2958376667171 L634.5806109971073 572.3392849053374 L625.271573576726 574.3827321439577 L623.2281263381058 583.691769564339 L621.1846790994855 574.3827321439577 L611.8756416791042 572.3392849053374 L621.1846790994855 570.2958376667171 Z" fill="#fbe3ab"/>
      <circle cx="623.2281263381058" cy="572.3392849053374" r="2.7245963181603625" fill="#fbe3ab"/>
    </g><g opacity="0.78104545828192">
      <path d="M1082.3635347875236 833.5065092381024 L1083.6038601509765 839.1568803382766 L1089.2542312511507 840.3972057017295 L1083.6038601509765 841.6375310651824 L1082.3635347875236 847.2879021653566 L1081.1232094240706 841.6375310651824 L1075.4728383238964 840.3972057017295 L1081.1232094240706 839.1568803382766 Z" fill="#d4bdf5"/>
      <circle cx="1082.3635347875236" cy="840.3972057017295" r="1.6537671512705179" fill="#d4bdf5"/>
    </g><g opacity="0.7158749691215519">
      <path d="M1037.6581378142673 1478.0717680943692 L1038.987974876517 1484.1299147112838 L1045.0461214934317 1485.4597517735335 L1038.987974876517 1486.7895888357832 L1037.6581378142673 1492.8477354526979 L1036.3283007520176 1486.7895888357832 L1030.270154135103 1485.4597517735335 L1036.3283007520176 1484.1299147112838 Z" fill="#d4bdf5"/>
      <circle cx="1037.6581378142673" cy="1485.4597517735335" r="1.7731160829994366" fill="#d4bdf5"/>
    </g><g opacity="0.9986435082226317">
      <path d="M778.7408995823957 692.6399699794688 L780.8327583293761 702.1695487157125 L790.3623370656198 704.2614074626929 L780.8327583293761 706.3532662096733 L778.7408995823957 715.882844945917 L776.6490408354153 706.3532662096733 L767.1194620991716 704.2614074626929 L776.6490408354153 702.1695487157125 Z" fill="#fbe3ab"/>
      <circle cx="778.7408995823957" cy="704.2614074626929" r="2.7891449959737864" fill="#fbe3ab"/>
    </g><g opacity="0.7769509100267828">
      <path d="M1106.5250102298116 1187.517957328865 L1107.7544435311754 1193.118709035077 L1113.3551952373875 1194.3481423364408 L1107.7544435311754 1195.5775756378046 L1106.5250102298116 1201.1783273440167 L1105.2955769284479 1195.5775756378046 L1099.6948252222357 1194.3481423364408 L1105.2955769284479 1193.118709035077 Z" fill="#fbe3ab"/>
      <circle cx="1106.5250102298116" cy="1194.3481423364408" r="1.6392444018182175" fill="#fbe3ab"/>
    </g><g opacity="0.6886791063813422">
      <path d="M1565.4827961336046 1311.0335542740504 L1567.3931977752152 1319.736495085832 L1576.0961385869969 1321.6468967274427 L1567.3931977752152 1323.5572983690533 L1565.4827961336046 1332.260239180835 L1563.572394491994 1323.5572983690533 L1554.8694536802122 1321.6468967274427 L1563.572394491994 1319.736495085832 Z" fill="#fbe3ab"/>
      <circle cx="1565.4827961336046" cy="1321.6468967274427" r="2.5472021888141736" fill="#fbe3ab"/>
    </g><g opacity="0.9608502543714561">
      <path d="M1103.8194935721765 1297.9752044606696 L1106.5036962107756 1310.203238703177 L1118.731730453283 1312.8874413417761 L1106.5036962107756 1315.5716439803753 L1103.8194935721765 1327.7996782228827 L1101.1352909335774 1315.5716439803753 L1088.90725669107 1312.8874413417761 L1101.1352909335774 1310.203238703177 Z" fill="#d4bdf5"/>
      <circle cx="1103.8194935721765" cy="1312.8874413417761" r="3.5789368514655644" fill="#d4bdf5"/>
    </g><g opacity="0.7227279676251902">
      <path d="M1009.7620148229556 825.1458954459259 L1012.1641984119134 836.0891762400671 L1023.1074792060546 838.4913598290249 L1012.1641984119134 840.8935434179826 L1009.7620148229556 851.8368242121238 L1007.3598312339979 840.8935434179826 L996.4165504398567 838.4913598290249 L1007.3598312339979 836.0891762400671 Z" fill="#f0c987"/>
      <circle cx="1009.7620148229556" cy="838.4913598290249" r="3.2029114519437343" fill="#f0c987"/>
    </g><g opacity="0.6873170839519388">
      <path d="M659.6153757859458 85.18729189581377 L661.6105973588893 94.27663461700095 L670.6999400800765 96.27185618994449 L661.6105973588893 98.26707776288802 L659.6153757859458 107.3564204840752 L657.6201542130024 98.26707776288802 L648.5308114918151 96.27185618994449 L657.6201542130024 94.27663461700095 Z" fill="#fbe3ab"/>
      <circle cx="659.6153757859458" cy="96.27185618994449" r="2.6602954305913724" fill="#fbe3ab"/>
    </g><g opacity="0.8987232371549625">
      <path d="M1106.782643931122 11.148955996754815 L1107.8671459502361 16.089465194941692 L1112.807655148423 17.173967214055885 L1107.8671459502361 18.25846923317008 L1106.782643931122 23.198978431356956 L1105.698141912008 18.25846923317008 L1100.757632713821 17.173967214055885 L1105.698141912008 16.089465194941692 Z" fill="#fbe3ab"/>
      <circle cx="1106.782643931122" cy="17.173967214055885" r="1.4460026921522569" fill="#fbe3ab"/>
    </g><g opacity="0.6554043727654013">
      <path d="M1467.251364045818 629.2192872850367 L1468.4909295000152 634.8661965763797 L1474.1378387913585 636.105762030577 L1468.4909295000152 637.3453274847743 L1467.251364045818 642.9922367761174 L1466.0117985916208 637.3453274847743 L1460.3648893002776 636.105762030577 L1466.0117985916208 634.8661965763797 Z" fill="#fbe3ab"/>
      <circle cx="1467.251364045818" cy="636.105762030577" r="1.652753938929684" fill="#fbe3ab"/>
    </g><g opacity="0.7431064911551654">
      <path d="M314.64064330094084 785.5988706070393 L316.61690790928367 794.6018538228233 L325.6198911250676 796.5781184311661 L316.61690790928367 798.5543830395089 L314.64064330094084 807.5573662552929 L312.664378692598 798.5543830395089 L303.66139547681405 796.5781184311661 L312.664378692598 794.6018538228233 Z" fill="#f0c987"/>
      <circle cx="314.64064330094084" cy="796.5781184311661" r="2.635019477790426" fill="#f0c987"/>
    </g><g opacity="0.704869790237012">
      <path d="M919.1483521288297 650.6672344168929 L920.4251843037528 656.4839143248757 L926.2418642117357 657.7607464997989 L920.4251843037528 659.037578674722 L919.1483521288297 664.8542585827048 L917.8715199539067 659.037578674722 L912.0548400459238 657.7607464997989 L917.8715199539067 656.4839143248757 Z" fill="#fbe3ab"/>
      <circle cx="919.1483521288297" cy="657.7607464997989" r="1.7024428998974297" fill="#fbe3ab"/>
    </g><g opacity="0.8216493330009229">
      <path d="M46.45464539651414 107.27758721377538 L49.07014016413859 119.19261893295344 L60.98517188331666 121.80811370057789 L49.07014016413859 124.42360846820235 L46.45464539651414 136.3386401873804 L43.83915062888968 124.42360846820235 L31.924118909711616 121.80811370057789 L43.83915062888968 119.19261893295344 Z" fill="#d4bdf5"/>
      <circle cx="46.45464539651414" cy="121.80811370057789" r="3.4873263568326047" fill="#d4bdf5"/>
    </g><g opacity="0.6543719387769521">
      <path d="M980.8067969157848 1284.0010749595303 L981.9874235836209 1289.3794853352276 L987.3658339593184 1290.5601120030638 L981.9874235836209 1291.7407386708999 L980.8067969157848 1297.1191490465972 L979.6261702479488 1291.7407386708999 L974.2477598722513 1290.5601120030638 L979.6261702479488 1289.3794853352276 Z" fill="#fbe3ab"/>
      <circle cx="980.8067969157848" cy="1290.5601120030638" r="1.574168890448038" fill="#fbe3ab"/>
    </g><g opacity="0.95">
      <path d="M230.28343576738504 361.01709661481044 L233.9200805486464 377.5840339516678 L250.48701788550372 381.2206787329291 L233.9200805486464 384.85732351419045 L230.28343576738504 401.4242608510478 L226.64679098612368 384.85732351419045 L210.07985364926637 381.2206787329291 L226.64679098612368 377.5840339516678 Z" fill="#fbe3ab"/>
      <circle cx="230.28343576738504" cy="381.2206787329291" r="4.848859708348484" fill="#fbe3ab"/>
    </g><g opacity="0.95">
      <path d="M426.57608543274694 133.8983122061362 L431.1176367765805 154.58760166137805 L451.80692623182233 159.1291530052116 L431.1176367765805 163.67070434904517 L426.57608543274694 184.359993804287 L422.03453408891335 163.67070434904517 L401.34524463367154 159.1291530052116 L422.03453408891335 154.58760166137805 Z" fill="#fbe3ab"/>
      <circle cx="426.57608543274694" cy="159.1291530052116" r="6.055401791778093" fill="#fbe3ab"/>
    </g><g opacity="0.95">
      <path d="M558.2297228771781 698.6562064159523 L562.0250683745192 715.9461136816172 L579.3149756401841 719.7414591789583 L562.0250683745192 723.5368046762993 L558.2297228771781 740.8267119419643 L554.4343773798371 723.5368046762993 L537.1444701141721 719.7414591789583 L554.4343773798371 715.9461136816172 Z" fill="#fbe3ab"/>
      <circle cx="558.2297228771781" cy="719.7414591789583" r="5.060460663121439" fill="#fbe3ab"/>
    </g><g opacity="0.95">
      <path d="M352.0766722028338 609.476636861134 L356.41691267733984 629.2488434672172 L376.1891192834229 633.5890839417232 L356.41691267733984 637.9293244162292 L352.0766722028338 657.7015310223123 L347.7364317283277 637.9293244162292 L327.96422512224467 633.5890839417232 L347.7364317283277 629.2488434672172 Z" fill="#fbe3ab"/>
      <circle cx="352.0766722028338" cy="633.5890839417232" r="5.786987299341385" fill="#fbe3ab"/>
    </g><g opacity="0.95">
      <path d="M703.4257299254464 972.2902375123269 L707.0247643111348 988.6858386026853 L723.4203654014932 992.2848729883738 L707.0247643111348 995.8839073740622 L703.4257299254464 1012.2795084644206 L699.8266955397579 995.8839073740622 L683.4310944493996 992.2848729883738 L699.8266955397579 988.6858386026853 Z" fill="#fbe3ab"/>
      <circle cx="703.4257299254464" cy="992.2848729883738" r="4.798712514251225" fill="#fbe3ab"/>
    </g><g opacity="0.95">
      <path d="M255.04335082558657 919.8073817866035 L258.53323572047395 935.7057463077571 L274.43160024162756 939.1956312026444 L258.53323572047395 942.6855160975318 L255.04335082558657 958.5838806186854 L251.5534659306992 942.6855160975318 L235.65510140954558 939.1956312026444 L251.5534659306992 935.7057463077571 Z" fill="#fbe3ab"/>
      <circle cx="255.04335082558657" cy="939.1956312026444" r="4.653179859849836" fill="#fbe3ab"/>
    </g><g opacity="0.95">
      <path d="M1438.1884439824425 1285.0086347264223 L1441.865738212624 1301.7607528861379 L1458.6178563723395 1305.4380471163192 L1441.865738212624 1309.1153413465006 L1438.1884439824425 1325.8674595062162 L1434.5111497522612 1309.1153413465006 L1417.7590315925456 1305.4380471163192 L1434.5111497522612 1301.7607528861379 Z" fill="#d4bdf5"/>
      <circle cx="1438.1884439824425" cy="1305.4380471163192" r="4.903058973575255" fill="#d4bdf5"/>
    </g><g opacity="0.95">
      <path d="M1536.046384416023 767.2852999473074 L1540.6539687322859 788.2754062769494 L1561.644075061928 792.8829905932123 L1540.6539687322859 797.4905749094752 L1536.046384416023 818.4806812391172 L1531.4388000997603 797.4905749094752 L1510.448693770118 792.8829905932123 L1531.4388000997603 788.2754062769494 Z" fill="#fbe3ab"/>
      <circle cx="1536.046384416023" cy="792.8829905932123" r="6.143445755017174" fill="#fbe3ab"/>
    </g><g opacity="0.95">
      <path d="M1083.6507366871278 1057.1775087995381 L1087.7328777932478 1075.773929394084 L1106.3292983877936 1079.856070500204 L1087.7328777932478 1083.9382116063239 L1083.6507366871278 1102.5346322008697 L1079.568595581008 1083.9382116063239 L1060.972174986462 1079.856070500204 L1079.568595581008 1075.773929394084 Z" fill="#d4bdf5"/>
      <circle cx="1083.6507366871278" cy="1079.856070500204" r="5.4428548081598045" fill="#d4bdf5"/>
    </g><g opacity="0.95">
      <path d="M494.65260980842027 1378.6173215706592 L498.59013080499307 1396.554917221713 L516.5277264560468 1400.4924382182858 L498.59013080499307 1404.4299592148586 L494.65260980842027 1422.3675548659123 L490.71508881184747 1404.4299592148586 L472.7774931607937 1400.4924382182858 L490.71508881184747 1396.554917221713 Z" fill="#fbe3ab"/>
      <circle cx="494.65260980842027" cy="1400.4924382182858" r="5.250027995430371" fill="#fbe3ab"/>
    </g>
</svg>